<svg width="758" height="581" viewBox="0 0 758 581" fill="none" xmlns="http://www.w3.org/2000/svg">
<g filter="url(#filter0_d_5715_15160)">
<g clip-path="url(#clip0_5715_15160)">
<rect x="15.5" y="10" width="727" height="551" fill="#F1F3F7"/>
<rect x="347.558" y="254.058" width="63.8846" height="63.8846" rx="4.44231" fill="#F1F3F7" stroke="#6D758F" stroke-width="2.11538"/>
<mask id="mask0_5715_15160" style="mask-type:alpha" maskUnits="userSpaceOnUse" x="348" y="255" width="63" height="62">
<rect x="348.809" y="255.543" width="61.343" height="61.3283" rx="2.75" fill="#E1E4ED"/>
</mask>
<g mask="url(#mask0_5715_15160)">
<line x1="391.609" y1="253" x2="391.609" y2="321.817" stroke="#B4B9C9" stroke-width="1.375"/>
<line x1="403.035" y1="253" x2="403.035" y2="321.817" stroke="#B4B9C9" stroke-width="1.375"/>
<line x1="380.191" y1="253" x2="380.191" y2="321.817" stroke="#B4B9C9" stroke-width="1.375"/>
<line x1="357.344" y1="253" x2="357.344" y2="321.817" stroke="#B4B9C9" stroke-width="1.375"/>
<line x1="368.77" y1="253" x2="368.77" y2="321.817" stroke="#B4B9C9" stroke-width="1.375"/>
<line x1="345.09" y1="275.298" x2="413.906" y2="275.298" stroke="#B4B9C9" stroke-width="1.375"/>
<line x1="345.09" y1="263.875" x2="413.906" y2="263.875" stroke="#B4B9C9" stroke-width="1.375"/>
<line x1="345.09" y1="286.721" x2="413.906" y2="286.721" stroke="#B4B9C9" stroke-width="1.375"/>
<line x1="345.09" y1="309.567" x2="413.906" y2="309.567" stroke="#B4B9C9" stroke-width="1.375"/>
<line x1="345.09" y1="298.144" x2="413.906" y2="298.144" stroke="#B4B9C9" stroke-width="1.375"/>
<rect x="347.531" y="254.204" width="63.6927" height="63.6775" rx="4.125" fill="url(#paint0_radial_5715_15160)"/>
<g filter="url(#filter1_d_5715_15160)">
<rect x="365.387" y="275.259" width="28.0195" height="24.8076" fill="white"/>
<path d="M364.098 294.703L369.93 287.284C371.584 285.18 374.748 285.111 376.492 287.141L381.619 293.11M377.191 287.955C379.394 285.153 382.463 281.184 382.663 280.925C382.67 280.916 382.677 280.907 382.684 280.898C384.341 278.808 387.495 278.744 389.235 280.769L394.363 286.739M368.345 301.606H390.646C392.992 301.606 394.894 299.704 394.894 297.358V275.057C394.894 272.711 392.992 270.81 390.646 270.81H368.345C365.999 270.81 364.098 272.711 364.098 275.057V297.358C364.098 299.704 365.999 301.606 368.345 301.606Z" fill="white"/>
<path d="M364.098 294.703L369.93 287.284C371.584 285.18 374.748 285.111 376.492 287.141L381.619 293.11M377.191 287.955C379.394 285.153 382.463 281.184 382.663 280.925C382.67 280.916 382.677 280.907 382.684 280.898C384.341 278.808 387.495 278.744 389.235 280.769L394.363 286.739M368.345 301.606H390.646C392.992 301.606 394.894 299.704 394.894 297.358V275.057C394.894 272.711 392.992 270.81 390.646 270.81H368.345C365.999 270.81 364.098 272.711 364.098 275.057V297.358C364.098 299.704 365.999 301.606 368.345 301.606Z" stroke="#6D758F" stroke-width="1.69231" stroke-linecap="round" stroke-linejoin="round"/>
<path d="M391.344 300.752H368.163H367.617C366.098 300.752 364.867 299.521 364.867 298.002V295.93C364.867 295.301 365.083 294.69 365.479 294.201L371.145 287.198C372.225 285.863 374.25 285.833 375.369 287.135L380.989 293.674C381.197 293.917 381.524 294.02 381.834 293.941C382.442 293.787 382.673 293.046 382.261 292.573L378.253 287.971L383.8 280.834C384.858 279.471 386.896 279.409 388.035 280.704L394.094 287.589V298.002C394.094 299.521 392.863 300.752 391.344 300.752Z" fill="#E1E4ED"/>
</g>
</g>
</g>
</g>
<defs>
<filter id="filter0_d_5715_15160" x="0.5" y="0" width="757" height="581" filterUnits="userSpaceOnUse" color-interpolation-filters="sRGB">
<feFlood flood-opacity="0" result="BackgroundImageFix"/>
<feColorMatrix in="SourceAlpha" type="matrix" values="0 0 0 0 0 0 0 0 0 0 0 0 0 0 0 0 0 0 127 0" result="hardAlpha"/>
<feOffset dy="5"/>
<feGaussianBlur stdDeviation="7.5"/>
<feComposite in2="hardAlpha" operator="out"/>
<feColorMatrix type="matrix" values="0 0 0 0 0.0969792 0 0 0 0 0.127894 0 0 0 0 0.2375 0 0 0 0.11 0"/>
<feBlend mode="normal" in2="BackgroundImageFix" result="effect1_dropShadow_5715_15160"/>
<feBlend mode="normal" in="SourceGraphic" in2="effect1_dropShadow_5715_15160" result="shape"/>
</filter>
<filter id="filter1_d_5715_15160" x="359.25" y="266.963" width="40.4883" height="40.4883" filterUnits="userSpaceOnUse" color-interpolation-filters="sRGB">
<feFlood flood-opacity="0" result="BackgroundImageFix"/>
<feColorMatrix in="SourceAlpha" type="matrix" values="0 0 0 0 0 0 0 0 0 0 0 0 0 0 0 0 0 0 127 0" result="hardAlpha"/>
<feOffset dy="1"/>
<feGaussianBlur stdDeviation="2"/>
<feComposite in2="hardAlpha" operator="out"/>
<feColorMatrix type="matrix" values="0 0 0 0 0.0969792 0 0 0 0 0.127894 0 0 0 0 0.2375 0 0 0 0.08 0"/>
<feBlend mode="normal" in2="BackgroundImageFix" result="effect1_dropShadow_5715_15160"/>
<feBlend mode="normal" in="SourceGraphic" in2="effect1_dropShadow_5715_15160" result="shape"/>
</filter>
<radialGradient id="paint0_radial_5715_15160" cx="0" cy="0" r="1" gradientUnits="userSpaceOnUse" gradientTransform="translate(379.378 286.042) rotate(90) scale(31.8387 31.8464)">
<stop stop-color="#F6FAFD" stop-opacity="0.28"/>
<stop offset="1" stop-color="#F6FAFD"/>
</radialGradient>
<clipPath id="clip0_5715_15160">
<rect x="15.5" y="10" width="727" height="551" rx="8" fill="white"/>
</clipPath>
</defs>
</svg>
